<svg xmlns="http://www.w3.org/2000/svg" viewBox="0 0 200 200" style="enable-background:new 0 0 200 200;" xml:space="preserve">
<style type="text/css">
	.st0{fill-rule:evenodd;clip-rule:evenodd;fill:#1CC0F0;}
	.st1{fill-rule:evenodd;clip-rule:evenodd;fill:#4CD18E;}
	.st2{fill-rule:evenodd;clip-rule:evenodd;fill:#8B27B1;}
	.st3{fill-rule:evenodd;clip-rule:evenodd;fill:#F09219;}
</style>
<g>
	<path class="st0" d="M91.5,18.5c23.6-2.3,40.1,7.4,49.5,29c4.7,18.3,0.2,33.8-13.5,46.5c-3.8,3.2-8.1,5.4-13,6.5
		c-2.6-33.4-20.6-51.9-54-55.5C67,31.6,77.4,22.8,91.5,18.5z"/>
</g>
<g>
	<path class="st1" d="M52.5,56.5c19.6-2.3,34.8,4.7,45.5,21c1.4,2.2,2.2,4.5,2.5,7c-33.4,2.6-51.9,20.6-55.5,54
		C21.6,126,13.9,107,22,81.5C28.5,68.5,38.6,60.2,52.5,56.5z"/>
</g>
<g>
	<path class="st2" d="M153.5,60.5c24.3,12,32.2,31,23.5,57c-11.2,20.7-28.3,28.5-51.5,23.5c-13-4.2-22-12.7-27-25.5
		C131.5,111.8,149.9,93.5,153.5,60.5z"/>
</g>
<g>
	<path class="st3" d="M82.5,98.5c1,0,2,0,3,0c0.6,27.3,13.9,45.1,40,53.5c4.3,0.6,8.7,1.2,13,2c-11.6,22.9-30,30.9-55,24
		c-19.9-10-28.8-26.1-26.5-48.5C61,115.3,69.5,105,82.5,98.5z"/>
</g>
</svg>
